<?xml version="1.0" encoding="UTF-8" standalone="no"?>
<!DOCTYPE svg PUBLIC "-//W3C//DTD SVG 1.1//EN" "http://www.w3.org/Graphics/SVG/1.1/DTD/svg11.dtd">
<svg width="100%" height="100%" viewBox="0 0 378 378" version="1.1" xmlns="http://www.w3.org/2000/svg" xmlns:xlink="http://www.w3.org/1999/xlink" xml:space="preserve" xmlns:serif="http://www.serif.com/" style="fill-rule:evenodd;clip-rule:evenodd;stroke-linejoin:round;stroke-miterlimit:2;">
    <g transform="matrix(3.80133,0,0,3.80133,-777.544,-438.81)">
        <g transform="matrix(1,0,0,1,3.69826,0)">
            <path d="M226.694,173.162L202.809,163.339L202.809,158.302L226.694,148.479L226.694,153.964L208.244,160.596L208.244,161.045L226.694,167.677L226.694,173.162Z" style="fill:rgb(205,214,244);fill-rule:nonzero;"/>
        </g>
        <path d="M244.071,178.996C240.049,178.996 236.542,178.348 233.55,177.051L234.198,172.015C236.027,172.796 237.793,173.39 239.496,173.797C241.2,174.205 242.858,174.408 244.47,174.408C249.058,174.408 251.351,172.763 251.351,169.472C251.351,167.361 250.271,165.815 248.11,164.834L241.977,162.042C239.567,160.945 237.718,159.624 236.43,158.078C235.141,156.532 234.497,154.612 234.497,152.319C234.497,149.227 235.428,146.834 237.29,145.138C239.151,143.443 241.786,142.595 245.193,142.595C247.57,142.595 249.673,142.944 251.501,143.642C253.329,144.34 255.091,145.479 256.786,147.058L253.296,150.598C251.833,149.402 250.466,148.533 249.195,147.993C247.923,147.453 246.598,147.183 245.218,147.183C243.506,147.183 242.181,147.594 241.241,148.417C240.302,149.24 239.833,150.457 239.833,152.069C239.833,153.216 240.14,154.151 240.755,154.874C241.37,155.597 242.276,156.241 243.473,156.806L248.659,159.25C251.285,160.48 253.279,161.868 254.642,163.413C256.005,164.959 256.687,166.945 256.687,169.372C256.687,175.788 252.482,178.996 244.071,178.996Z" style="fill:rgb(205,214,244);fill-rule:nonzero;"/>
        <g transform="matrix(1,0,0,1,-8.29312,0)">
            <path d="M263.094,183.234L283.14,138.357L288.425,138.357L268.38,183.234L263.094,183.234Z" style="fill:rgb(205,214,244);fill-rule:nonzero;"/>
        </g>
        <g transform="matrix(1,0,0,1,-17.7413,0)">
            <path d="M293.81,173.162L293.81,167.677L311.263,161.045L311.263,160.596L290.809,152.268L292.193,147.953L317.695,158.302L317.695,163.339L293.81,173.162Z" style="fill:rgb(205,214,244);fill-rule:nonzero;"/>
        </g>
    </g>
    <path d="M22.203,278.838C22.157,278.474 22.398,278.574 22.089,274.252C24.633,284.429 26.028,298.584 38.533,283.578C45.871,274.772 47.808,272.876 56.94,279.651C78.349,295.536 89.394,262.553 102.344,273.27C134.228,299.657 143.441,266.527 158.792,272.534C163.425,274.347 179.426,290.553 204.687,282.351C209.487,280.793 214.134,278.793 218.922,277.197C234.746,271.922 236.078,295.341 273.161,279.651C297.378,269.406 299.198,294.13 322.983,283.087C340.972,274.735 343.209,267.436 358.079,280.388C361.909,283.723 362.202,282.789 367.16,284.315" style="fill:rgb(205,214,244);"/>
    <path d="M31.534,279.415C31.829,279.102 32.117,278.78 32.387,278.457C35.615,274.583 38.083,271.895 40.319,270.31L44.12,268.316L46.413,267.735L48.807,267.573C52.087,267.646 56.15,269.104 61.706,273.227C67.143,277.26 71.477,276.03 75.253,273.786C77.749,272.303 80.078,270.505 82.326,268.921C90.991,262.817 99.064,260.172 107.444,267.107C114.495,272.942 119.979,275.433 124.722,275.608C131.964,275.875 136.91,271.082 141.725,268.18C148.291,264.222 154.639,262.318 161.707,265.084C163.333,265.72 166.225,267.757 170.178,270.197C176.707,274.23 187.575,279.496 202.217,274.742C206.996,273.19 211.624,271.197 216.392,269.608C223.616,267.2 228.872,268.549 234.192,271.214C237.697,272.971 241.189,275.777 246.668,276.794C252.012,277.786 259.163,276.887 270.044,272.284C282.741,266.912 290.74,269.037 297.764,272.399C303.92,275.346 308.686,280.905 319.614,275.831C327.296,272.265 332.162,268.905 336.331,267.162C340.81,265.29 344.816,264.772 349.331,265.932C353.143,266.912 357.576,269.341 363.333,274.355C365.888,276.58 366.206,275.651 369.513,276.668C373.733,277.967 376.105,282.447 374.806,286.667C373.508,290.887 369.027,293.259 364.807,291.961C358.192,289.925 357.935,290.871 352.825,286.42C349.354,283.398 347.167,281.615 344.949,281.352C343.122,281.135 341.621,282.26 339.489,283.412C336.049,285.27 331.931,287.753 326.352,290.343C313.749,296.195 305.797,294.252 298.744,290.939C292.52,288.015 287.601,282.229 276.278,287.019C254.328,296.306 242.916,293.411 234.693,289.582C231.838,288.253 229.417,286.718 227.023,285.518C225.35,284.68 223.723,284.029 221.452,284.787C216.644,286.389 211.977,288.395 207.157,289.96C186.434,296.689 171.011,289.518 161.77,283.811C159.192,282.218 156.117,280.189 155.721,279.927C153.63,279.211 151.947,280.7 149.985,281.883C146.991,283.688 143.882,285.877 140.435,287.655C135.001,290.457 128.862,292.306 121.464,291.381C114.769,290.544 106.795,287.338 97.243,279.433C96.386,278.724 95.612,279.443 94.757,279.918C92.39,281.233 89.976,283.157 87.39,284.961C81.824,288.842 75.624,292.074 68.621,292.058C63.65,292.047 58.167,290.524 52.173,286.076C51.106,285.284 49.799,284.499 48.955,284.014C47.985,285.008 46.17,286.91 44.678,288.7C35.625,299.564 28.304,298.931 24.266,296.744L21.086,294.25C20.096,293.179 19.184,291.831 18.404,290.231C17.589,288.56 16.917,286.479 16.312,284.249C15.225,283.069 14.482,281.552 14.266,279.841C14.216,279.442 14.447,279.552 14.109,274.822C13.814,270.683 16.731,267.005 20.829,266.352C24.927,265.698 28.844,268.286 29.85,272.312C30.423,274.605 30.935,277.105 31.534,279.415Z" style="fill:rgb(205,214,244);"/>
</svg>
