<?xml version="1.0" encoding="UTF-8" standalone="no"?>
<!DOCTYPE svg PUBLIC "-//W3C//DTD SVG 1.1//EN" "http://www.w3.org/Graphics/SVG/1.1/DTD/svg11.dtd">
<svg width="100%" height="100%" viewBox="0 0 2952 590" version="1.1" xmlns="http://www.w3.org/2000/svg" xmlns:xlink="http://www.w3.org/1999/xlink" xml:space="preserve" xmlns:serif="http://www.serif.com/" style="fill-rule:evenodd;clip-rule:evenodd;stroke-linecap:round;stroke-linejoin:round;stroke-miterlimit:1.5;">
    <g transform="matrix(0.435695,0,0,0.435695,-60.1328,-67.8036)">
        <path d="M397.873,985.846L483.333,1071.31L397.873,1156.77L312.412,1071.31L397.873,985.846Z" style="fill:#cdd6f4;stroke:#cdd6f4;stroke-width:66.78px;"/>
    </g>
    <g transform="matrix(0.00394567,0,0,1,2857.21,-900.253)">
        <g transform="matrix(273.236,0,0,1.9787,-774493,401.329)">
            <path d="M2698.28,453.641C2698.28,457.599 2692.38,460.812 2685.11,460.812L2587.42,460.812C2580.15,460.812 2574.25,457.599 2574.25,453.641C2574.25,449.682 2580.15,446.469 2587.42,446.469L2685.11,446.469C2692.38,446.469 2698.28,449.682 2698.28,453.641Z" style="fill:#f38ba8;"/>
        </g>
        <g transform="matrix(4917.64,0,0,1.9787,-1.33503e+07,401.716)">
            <path d="M2698.28,453.641C2698.28,457.599 2697.95,460.812 2697.55,460.812L2574.99,460.812C2574.58,460.812 2574.25,457.599 2574.25,453.641C2574.25,449.682 2574.58,446.469 2574.99,446.469L2697.55,446.469C2697.95,446.469 2698.28,449.682 2698.28,453.641Z" style="fill:#cdd6f4;"/>
        </g>
        <g transform="matrix(153.519,0,0,1.9787,-424558,401.743)">
            <path d="M2698.28,453.641C2698.28,457.599 2687.78,460.812 2674.85,460.812L2597.68,460.812C2584.75,460.812 2574.25,457.599 2574.25,453.641C2574.25,449.682 2584.75,446.469 2597.68,446.469L2674.85,446.469C2687.78,446.469 2698.28,449.682 2698.28,453.641Z" style="fill:#f9e2af;"/>
        </g>
        <g transform="matrix(89.2459,0,0,1.9787,-232287,402.209)">
            <path d="M2698.28,453.641C2698.28,457.599 2680.22,460.812 2657.98,460.812L2614.55,460.812C2592.31,460.812 2574.25,457.599 2574.25,453.641C2574.25,449.682 2592.31,446.469 2614.55,446.469L2657.98,446.469C2680.22,446.469 2698.28,449.682 2698.28,453.641Z" style="fill:#a6e3a1;"/>
        </g>
    </g>
    <g transform="matrix(2.89717,0,0,1.36921,-2901.84,-1290.19)">
        <g>
            <clipPath id="_clip1">
                <rect x="1015.99" y="1032.92" width="990.175" height="261.301"/>
            </clipPath>
            <g clip-path="url(#_clip1)">
                <g transform="matrix(1.00539,0,0,2.12734,1055.63,1157.75)">
                    <text x="0px" y="0px" style="font-family:'CaskaydiaCoveNF-Regular', 'CaskaydiaCove Nerd Font', monospace;font-size:80.107px;fill:#cdd6f4;stroke:#cdd6f4;stroke-width:0.34px;stroke-linecap:butt;stroke-miterlimit:2;">Thanks For Reading!</text>
                </g>
            </g>
        </g>
    </g>
    <g transform="matrix(0.892882,0.45029,-0.45029,0.892882,314.7,-1211.63)">
        <path d="M2819.91,58.744L2827.24,81.324L2850.99,81.324L2831.78,95.28L2839.12,117.86L2819.91,103.905L2800.7,117.86L2808.04,95.28L2788.83,81.324L2812.57,81.324L2819.91,58.744Z" style="fill:#b4befe;stroke:#b4befe;stroke-width:15.96px;"/>
    </g>
    <g transform="matrix(0.638252,-0.343932,0.343932,0.638252,843.003,980.968)">
        <path d="M2819.77,58.883L2819.77,58.882C2819.77,58.806 2819.83,58.744 2819.91,58.744C2819.98,58.744 2820.05,58.806 2820.05,58.882L2820.05,58.883L2819.91,88.262C2819.9,88.998 2820.26,89.691 2820.85,90.124C2821.45,90.557 2822.21,90.677 2822.91,90.446L2850.81,81.236C2850.89,81.212 2850.96,81.252 2850.99,81.324C2851.01,81.397 2850.97,81.475 2850.9,81.498L2850.9,81.499L2822.91,90.446C2822.21,90.67 2821.66,91.218 2821.43,91.919C2821.21,92.619 2821.33,93.386 2821.76,93.98L2839.14,117.667L2839.15,117.667C2839.19,117.729 2839.18,117.816 2839.12,117.86C2839.05,117.905 2838.97,117.892 2838.92,117.83L2838.92,117.829L2821.76,93.98C2821.34,93.382 2820.64,93.028 2819.91,93.028C2819.17,93.028 2818.48,93.382 2818.05,93.98L2800.89,117.829L2800.89,117.83C2800.85,117.892 2800.76,117.905 2800.7,117.86C2800.64,117.816 2800.62,117.729 2800.67,117.667L2818.05,93.98C2818.49,93.386 2818.61,92.619 2818.38,91.919C2818.15,91.218 2817.6,90.67 2816.9,90.446L2788.92,81.499L2788.92,81.498C2788.84,81.475 2788.8,81.397 2788.83,81.324C2788.85,81.252 2788.93,81.212 2789,81.236L2816.9,90.446C2817.6,90.677 2818.37,90.557 2818.96,90.124C2819.56,89.691 2819.91,88.998 2819.91,88.262L2819.77,58.883Z" style="fill:#b4befe;stroke:#b4befe;stroke-width:22.02px;"/>
    </g>
    <g transform="matrix(0.638252,-0.343932,0.343932,0.638252,961.352,963.797)">
        <path d="M2813.97,66.559C2813.82,66.022 2813.74,65.467 2813.74,64.91C2813.74,61.507 2816.5,58.744 2819.91,58.744C2823.31,58.744 2826.07,61.507 2826.07,64.91C2826.07,65.467 2826,66.022 2825.85,66.559L2819.99,87.66C2819.74,88.581 2820.08,89.563 2820.85,90.124C2821.62,90.685 2822.66,90.708 2823.46,90.181L2841.72,78.089C2842.18,77.781 2842.69,77.538 2843.22,77.365C2846.45,76.314 2849.93,78.088 2850.99,81.324C2852.04,84.561 2850.26,88.042 2847.03,89.094C2846.5,89.266 2845.95,89.366 2845.39,89.39L2823.51,90.339C2822.56,90.381 2821.73,91.01 2821.43,91.919C2821.14,92.827 2821.44,93.823 2822.19,94.417L2839.33,108.046C2839.76,108.392 2840.15,108.797 2840.48,109.248C2842.48,112.001 2841.87,115.86 2839.12,117.86C2836.36,119.861 2832.5,119.249 2830.5,116.496C2830.18,116.045 2829.91,115.552 2829.72,115.03L2822.05,94.515C2821.72,93.621 2820.86,93.028 2819.91,93.028C2818.95,93.028 2818.1,93.621 2817.76,94.515L2810.1,115.03C2809.9,115.552 2809.64,116.045 2809.31,116.496C2807.31,119.249 2803.45,119.861 2800.7,117.86C2797.95,115.86 2797.33,112.001 2799.34,109.248C2799.66,108.797 2800.05,108.392 2800.49,108.046L2817.63,94.417C2818.38,93.823 2818.68,92.827 2818.38,91.919C2818.09,91.01 2817.26,90.381 2816.3,90.339L2794.42,89.39C2793.87,89.366 2793.32,89.266 2792.79,89.094C2789.55,88.042 2787.78,84.561 2788.83,81.324C2789.88,78.088 2793.36,76.314 2796.6,77.365C2797.13,77.538 2797.63,77.781 2798.1,78.089L2816.36,90.181C2817.15,90.708 2818.19,90.685 2818.96,90.124C2819.74,89.563 2820.08,88.581 2819.82,87.66L2813.97,66.559Z" style="fill:#b4befe;stroke:#b4befe;stroke-width:22.02px;"/>
    </g>
</svg>
