<?xml version="1.0" encoding="utf-8"?>
<svg xmlns="http://www.w3.org/2000/svg" viewBox="215.151 203.841 50.511 50.511" width="50.511px" height="50.511px"><g id="object-2" transform="matrix(1, 0, 0, 1, 0, 2.842170943040401e-14)"><rect x="215.151" y="203.841" width="50.511" height="50.511" style="stroke-linejoin: round; stroke-dasharray: 4; stroke: rgb(48, 44, 44); fill: rgb(246, 244, 242);" id="object-1"/><path d="M 252.533 229.452 C 252.533 231.762 250.033 233.205 248.033 232.051 C 247.105 231.515 246.533 230.524 246.533 229.452 C 246.533 227.143 249.033 225.7 251.033 226.854 C 251.961 227.39 252.533 228.381 252.533 229.452 M 243.533 238.452 C 243.533 240.762 241.033 242.205 239.033 241.051 C 238.105 240.515 237.533 239.524 237.533 238.452 C 237.533 236.143 240.033 234.7 242.033 235.854 C 242.961 236.39 243.533 237.381 243.533 238.452 M 243.533 229.452 C 243.533 231.762 241.033 233.205 239.033 232.051 C 238.105 231.515 237.533 230.524 237.533 229.452 C 237.533 227.143 240.033 225.7 242.033 226.854 C 242.961 227.39 243.533 228.381 243.533 229.452 M 249.533 223.452 C 247.223 223.452 245.78 220.952 246.935 218.952 C 247.471 218.024 248.461 217.452 249.533 217.452 C 251.842 217.452 253.286 219.952 252.131 221.952 C 251.595 222.881 250.605 223.452 249.533 223.452 M 249.533 222.952 C 251.457 222.952 252.66 220.869 251.698 219.202 C 251.251 218.429 250.426 217.952 249.533 217.952 C 247.608 217.952 246.405 220.036 247.368 221.702 C 247.814 222.476 248.64 222.952 249.533 222.952 M 231.533 241.452 C 229.223 241.452 227.78 238.952 228.935 236.952 C 229.471 236.024 230.461 235.452 231.533 235.452 C 233.842 235.452 235.286 237.952 234.131 239.952 C 233.595 240.881 232.605 241.452 231.533 241.452 M 231.533 240.952 C 233.457 240.952 234.66 238.869 233.698 237.202 C 233.251 236.429 232.426 235.952 231.533 235.952 C 229.608 235.952 228.405 238.036 229.368 239.702 C 229.814 240.476 230.64 240.952 231.533 240.952 M 249.533 241.452 C 247.223 241.452 245.78 238.952 246.935 236.952 C 247.471 236.024 248.461 235.452 249.533 235.452 C 251.842 235.452 253.286 237.952 252.131 239.952 C 251.595 240.881 250.605 241.452 249.533 241.452 M 249.533 240.952 C 251.457 240.952 252.66 238.869 251.698 237.202 C 251.251 236.429 250.426 235.952 249.533 235.952 C 247.608 235.952 246.405 238.036 247.368 239.702 C 247.814 240.476 248.64 240.952 249.533 240.952 M 234.533 229.452 C 234.533 231.762 232.033 233.205 230.033 232.051 C 229.105 231.515 228.533 230.524 228.533 229.452 C 228.533 227.143 231.033 225.7 233.033 226.854 C 233.961 227.39 234.533 228.381 234.533 229.452 M 243.533 220.452 C 243.533 222.762 241.033 224.205 239.033 223.051 C 238.105 222.515 237.533 221.524 237.533 220.452 C 237.533 218.143 240.033 216.7 242.033 217.854 C 242.961 218.39 243.533 219.381 243.533 220.452 M 240.533 222.952 C 242.457 222.952 243.66 220.869 242.698 219.202 C 242.251 218.429 241.426 217.952 240.533 217.952 C 238.608 217.952 237.405 220.036 238.368 221.702 C 238.814 222.476 239.64 222.952 240.533 222.952 M 234.533 220.452 C 234.533 222.762 232.033 224.205 230.033 223.051 C 229.105 222.515 228.533 221.524 228.533 220.452 C 228.533 218.143 231.033 216.7 233.033 217.854 C 233.961 218.39 234.533 219.381 234.533 220.452 M 231.533 222.952 C 233.457 222.952 234.66 220.869 233.698 219.202 C 233.251 218.429 232.426 217.952 231.533 217.952 C 229.608 217.952 228.405 220.036 229.368 221.702 C 229.814 222.476 230.64 222.952 231.533 222.952" id="object-0" style="fill: rgb(213, 213, 213); stroke: rgb(48, 44, 44);"/></g></svg>